# xmcd CD database file
#
# Track frame offsets:
#	150
#	16801
#	37781
#	69734
#	102234
#	116116
#	131779
#	147967
#	177005
#	187909
#	200556
#	211108
#
# Disc length: 3028 seconds
#
# Revision: 0
# Processed by: cddbd v1.5.2PL0 Copyright (c) Steve Scherf et al.
# Submitted via: jetAudio 7
#
DISCID=a50bd20c
DTITLE=餘其偉 - 雪底游魂
DYEAR=1900
DGENRE=Folk
TTITLE0=悲秋
TTITLE1=雪底游魂
TTITLE2=小桃紅
TTITLE3=寒春風曲
TTITLE4=賣雜貨-仙花調
TTITLE5=滿園春色
TTITLE6=迷離
TTITLE7=凱旋
TTITLE8=龍飛鳳舞
TTITLE9=玉美人-紅綉鞋
TTITLE10=甜蜜的蘋果
TTITLE11=歡樂歌
EXTD=
EXTT0=
EXTT1=
EXTT2=
EXTT3=
EXTT4=
EXTT5=
EXTT6=
EXTT7=
EXTT8=
EXTT9=
EXTT10=
EXTT11=
PLAYORDER=
